<svg width="200" height="70" viewBox="0 0 200 70" fill="none" xmlns="http://www.w3.org/2000/svg">
<path style="fill:#FFFACD" d="M15.4023 40.6543H16.5449L17.1602 43.8359C17.5938 44.3867 18.3379 44.873 19.3926 45.2949C20.459 45.7168 21.5078 45.9277 22.5391 45.9277C24.1797 45.9277 25.457 45.5117 26.3711 44.6797C27.2969 43.8359 27.7598 42.6758 27.7598 41.1992C27.7598 40.3555 27.5781 39.6582 27.2148 39.1074C26.8633 38.5566 26.3945 38.0938 25.8086 37.7188C25.2344 37.332 24.5781 37.0098 23.8398 36.752C23.1016 36.4824 22.3398 36.2129 21.5547 35.9434C20.7812 35.6738 20.0254 35.375 19.2871 35.0469C18.5488 34.7188 17.8867 34.3027 17.3008 33.7988C16.7266 33.2949 16.2578 32.6738 15.8945 31.9355C15.543 31.1855 15.3672 30.2656 15.3672 29.1758C15.3672 27.3008 16.0703 25.8301 17.4766 24.7637C18.8828 23.6973 20.834 23.1641 23.3301 23.1641C25.2285 23.1641 27.291 23.416 29.5176 23.9199V28.8242H28.375L27.7598 25.9414C26.5645 25.0742 25.0879 24.6406 23.3301 24.6406C21.7598 24.6406 20.5293 24.9629 19.6387 25.6074C18.7598 26.2402 18.3203 27.1191 18.3203 28.2441C18.3203 29.0059 18.4961 29.6387 18.8477 30.1426C19.2109 30.6465 19.6797 31.0801 20.2539 31.4434C20.8398 31.7949 21.502 32.0996 22.2402 32.3574C22.9902 32.6152 23.752 32.8848 24.5254 33.166C25.3105 33.4355 26.0723 33.7461 26.8105 34.0977C27.5605 34.4375 28.2227 34.877 28.7969 35.416C29.3828 35.9434 29.8516 36.5938 30.2031 37.3672C30.5664 38.1289 30.748 39.0723 30.748 40.1973C30.748 42.4707 30.0508 44.2344 28.6562 45.4883C27.2617 46.7305 25.252 47.3516 22.627 47.3516C21.3613 47.3516 20.0898 47.2402 18.8125 47.0176C17.5352 46.7949 16.3984 46.4902 15.4023 46.1035V40.6543ZM38.4473 35.7383C39.6504 35.7383 40.5332 35.9844 41.0957 36.4766C41.666 36.9688 41.9512 37.7227 41.9512 38.7383V46.1797L43.3223 46.4727V47H40.2988L40.0762 45.8984C39.1855 46.7891 38.0488 47.2344 36.666 47.2344C34.7832 47.2344 33.8418 46.1406 33.8418 43.9531C33.8418 43.2188 33.9824 42.6133 34.2637 42.1367C34.5527 41.6523 35.0098 41.2852 35.6348 41.0352C36.2598 40.7773 37.166 40.6367 38.3535 40.6133L40.0059 40.5664V38.8438C40.0059 38.0859 39.8652 37.5273 39.584 37.168C39.3105 36.8086 38.8848 36.6289 38.3066 36.6289C37.5254 36.6289 36.8105 36.8125 36.1621 37.1797L35.7637 38.5508H35.1074V36.1484C36.373 35.875 37.4863 35.7383 38.4473 35.7383ZM40.0059 41.3867L38.4707 41.4336C37.4238 41.4727 36.7129 41.6758 36.3379 42.043C35.9707 42.4102 35.7871 43.0234 35.7871 43.8828C35.7871 45.2578 36.3457 45.9453 37.4629 45.9453C37.9941 45.9453 38.4512 45.8867 38.834 45.7695C39.2246 45.6445 39.6152 45.4883 40.0059 45.3008V41.3867ZM52.6387 41.1875C52.6387 39.75 52.3887 38.6797 51.8887 37.9766C51.3887 37.2734 50.6152 36.9219 49.5684 36.9219C49.1074 36.9219 48.6504 36.9648 48.1973 37.0508C47.7441 37.1289 47.416 37.2148 47.2129 37.3086V46.0391C47.8691 46.1641 48.6543 46.2266 49.5684 46.2266C50.6465 46.2266 51.4277 45.8047 51.9121 44.9609C52.3965 44.1172 52.6387 42.8594 52.6387 41.1875ZM45.2676 31.1562L43.6621 30.875V30.3477H47.2129V34.2852C47.2129 34.707 47.1895 35.4805 47.1426 36.6055C47.9238 35.9961 48.9082 35.6914 50.0957 35.6914C51.5957 35.6914 52.7441 36.1484 53.541 37.0625C54.3457 37.9688 54.748 39.3438 54.748 41.1875C54.748 43.1641 54.3066 44.668 53.4238 45.6992C52.5488 46.7227 51.2793 47.2344 49.6152 47.2344C48.9434 47.2344 48.2012 47.1602 47.3887 47.0117C46.584 46.8633 45.877 46.668 45.2676 46.4258V31.1562ZM60.1035 32.3867C60.1035 32.7305 59.9785 33.0273 59.7285 33.2773C59.4785 33.5273 59.1777 33.6523 58.8262 33.6523C58.4824 33.6523 58.1855 33.5273 57.9355 33.2773C57.6855 33.0273 57.5605 32.7305 57.5605 32.3867C57.5605 32.0352 57.6855 31.7344 57.9355 31.4844C58.1855 31.2344 58.4824 31.1094 58.8262 31.1094C59.1777 31.1094 59.4785 31.2344 59.7285 31.4844C59.9785 31.7344 60.1035 32.0352 60.1035 32.3867ZM59.9863 46.1797L61.873 46.4727V47H56.166V46.4727L58.041 46.1797V36.8047L56.4824 36.5117V35.9844H59.9863V46.1797ZM66.1387 36.875C66.7402 36.5312 67.3809 36.25 68.0605 36.0312C68.7402 35.8047 69.3066 35.6914 69.7598 35.6914C70.7129 35.6914 71.4316 35.9688 71.916 36.5234C72.4004 37.0781 72.6426 37.8828 72.6426 38.9375V46.1797L73.9785 46.4727V47H69.2324V46.4727L70.6973 46.1797V39.1484C70.6973 38.5 70.5371 37.9922 70.2168 37.625C69.9043 37.25 69.416 37.0625 68.752 37.0625C68.0488 37.0625 67.1855 37.1758 66.1621 37.4023V46.1797L67.6504 46.4727V47H62.8926V46.4727L64.2168 46.1797V36.8047L62.8926 36.5117V35.9844H66.0332L66.1387 36.875ZM77.3887 41.457V41.668C77.3887 42.7461 77.5059 43.5859 77.7402 44.1875C77.9824 44.7812 78.3496 45.2344 78.8418 45.5469C79.3418 45.8594 79.9941 46.0156 80.7988 46.0156C81.2207 46.0156 81.7207 45.9805 82.2988 45.9102C82.877 45.8398 83.3535 45.7617 83.7285 45.6758V46.332C83.3535 46.5742 82.8418 46.7852 82.1934 46.9648C81.5527 47.1445 80.8965 47.2344 80.2246 47.2344C78.5137 47.2344 77.2598 46.7734 76.4629 45.8516C75.6738 44.9297 75.2793 43.4492 75.2793 41.4102C75.2793 39.4883 75.6816 38.0547 76.4863 37.1094C77.291 36.1641 78.4395 35.6914 79.9316 35.6914C82.752 35.6914 84.1621 37.293 84.1621 40.4961V41.457H77.3887ZM79.9316 36.6289C79.1191 36.6289 78.4941 36.957 78.0566 37.6133C77.627 38.2695 77.4121 39.2383 77.4121 40.5195H82.123C82.123 39.1211 81.9434 38.125 81.584 37.5312C81.2246 36.9297 80.6738 36.6289 79.9316 36.6289ZM106.158 47H105.543L96.9121 26.7324V45.5938L100.076 46.0684V47H92.043V46.0684L95.0664 45.5938V24.8164L92.043 24.3594V23.4277H99.1797L106.844 41.3574L115.211 23.4277H121.961V24.3594L118.938 24.8164V45.5938L121.961 46.0684V47H112.398V46.0684L115.562 45.5938V26.7324L106.158 47ZM128.482 35.7383C129.686 35.7383 130.568 35.9844 131.131 36.4766C131.701 36.9688 131.986 37.7227 131.986 38.7383V46.1797L133.357 46.4727V47H130.334L130.111 45.8984C129.221 46.7891 128.084 47.2344 126.701 47.2344C124.818 47.2344 123.877 46.1406 123.877 43.9531C123.877 43.2188 124.018 42.6133 124.299 42.1367C124.588 41.6523 125.045 41.2852 125.67 41.0352C126.295 40.7773 127.201 40.6367 128.389 40.6133L130.041 40.5664V38.8438C130.041 38.0859 129.9 37.5273 129.619 37.168C129.346 36.8086 128.92 36.6289 128.342 36.6289C127.561 36.6289 126.846 36.8125 126.197 37.1797L125.799 38.5508H125.143V36.1484C126.408 35.875 127.521 35.7383 128.482 35.7383ZM130.041 41.3867L128.506 41.4336C127.459 41.4727 126.748 41.6758 126.373 42.043C126.006 42.4102 125.822 43.0234 125.822 43.8828C125.822 45.2578 126.381 45.9453 127.498 45.9453C128.029 45.9453 128.486 45.8867 128.869 45.7695C129.26 45.6445 129.65 45.4883 130.041 45.3008V41.3867ZM137.494 36.875C138.096 36.5312 138.736 36.25 139.416 36.0312C140.096 35.8047 140.662 35.6914 141.115 35.6914C142.068 35.6914 142.787 35.9688 143.271 36.5234C143.756 37.0781 143.998 37.8828 143.998 38.9375V46.1797L145.334 46.4727V47H140.588V46.4727L142.053 46.1797V39.1484C142.053 38.5 141.893 37.9922 141.572 37.625C141.26 37.25 140.771 37.0625 140.107 37.0625C139.404 37.0625 138.541 37.1758 137.518 37.4023V46.1797L139.006 46.4727V47H134.248V46.4727L135.572 46.1797V36.8047L134.248 36.5117V35.9844H137.389L137.494 36.875ZM154.17 43.9062C154.17 45 153.822 45.8281 153.127 46.3906C152.439 46.9531 151.42 47.2344 150.068 47.2344C149.521 47.2344 148.916 47.1758 148.252 47.0586C147.596 46.9492 147.08 46.8242 146.705 46.6836V43.9766H147.232L147.807 45.5117C148.393 46.043 149.154 46.3086 150.092 46.3086C151.607 46.3086 152.365 45.6602 152.365 44.3633C152.365 43.4102 151.768 42.7305 150.572 42.3242L149.529 41.9844C148.74 41.7266 148.166 41.4648 147.807 41.1992C147.447 40.9336 147.17 40.6094 146.975 40.2266C146.779 39.8359 146.682 39.3672 146.682 38.8203C146.682 37.8516 147.01 37.0898 147.666 36.5352C148.33 35.9727 149.225 35.6914 150.35 35.6914C151.154 35.6914 152.162 35.8125 153.373 36.0547V38.457H152.822L152.33 37.1797C151.916 36.8125 151.264 36.6289 150.373 36.6289C149.74 36.6289 149.256 36.7852 148.92 37.0977C148.592 37.4102 148.428 37.832 148.428 38.3633C148.428 38.8086 148.576 39.1836 148.873 39.4883C149.178 39.793 149.635 40.0469 150.244 40.25C151.393 40.6406 152.143 40.9258 152.494 41.1055C152.846 41.2852 153.143 41.5078 153.385 41.7734C153.635 42.0312 153.826 42.3281 153.959 42.6641C154.1 43 154.17 43.4141 154.17 43.9062ZM166.135 41.4336C166.135 45.3008 164.416 47.2344 160.979 47.2344C159.322 47.2344 158.072 46.7383 157.229 45.7461C156.385 44.7539 155.963 43.3164 155.963 41.4336C155.963 39.5742 156.385 38.1523 157.229 37.168C158.072 36.1836 159.354 35.6914 161.072 35.6914C162.744 35.6914 164.006 36.1758 164.857 37.1445C165.709 38.1055 166.135 39.5352 166.135 41.4336ZM164.025 41.4336C164.025 39.7461 163.779 38.5234 163.287 37.7656C162.795 37.0078 162.025 36.6289 160.979 36.6289C159.955 36.6289 159.213 36.9922 158.752 37.7188C158.299 38.4453 158.072 39.6836 158.072 41.4336C158.072 43.207 158.303 44.4648 158.764 45.207C159.232 45.9414 159.971 46.3086 160.979 46.3086C162.01 46.3086 162.775 45.9258 163.275 45.1602C163.775 44.3945 164.025 43.1523 164.025 41.4336ZM170.717 43.8594C170.717 45.2031 171.342 45.875 172.592 45.875C173.561 45.875 174.467 45.7539 175.311 45.5117V36.8047L173.646 36.5117V35.9844H177.244V46.1797L178.639 46.4727V47H175.428L175.334 46.1094C174.779 46.4141 174.139 46.6797 173.412 46.9062C172.686 47.125 172.076 47.2344 171.584 47.2344C169.709 47.2344 168.771 46.1562 168.771 44V36.8047L167.365 36.5117V35.9844H170.717V43.8594ZM186.83 35.6914V38.668H186.326L185.646 37.3789C185.256 37.3789 184.791 37.4336 184.252 37.543C183.721 37.6445 183.26 37.7812 182.869 37.9531V46.1797L184.756 46.4727V47H179.529V46.4727L180.924 46.1797V36.8047L179.529 36.5117V35.9844H182.74L182.846 37.3555C183.314 36.9648 183.947 36.5898 184.744 36.2305C185.549 35.8711 186.186 35.6914 186.654 35.6914H186.83Z" fill="black"/>
</svg>
