<svg width="200" height="70" viewBox="0 0 200 70" fill="none" xmlns="http://www.w3.org/2000/svg">
<path d="M77.5 43.7363L89.551 51L86.353 37.31L97 28.0989L82.9795 26.9111L77.5 14L72.0205 26.9111L58 28.0989L68.647 37.31L65.449 51L77.5 43.7363Z" fill="#323232"/>
<path d="M8.13 33.27C6.89 33.27 5.8 33.1 4.86 32.76C3.94 32.4 3 31.93 2.04 31.35C2.16 30.59 2.23 29.83 2.25 29.07C2.29 28.31 2.31 27.65 2.31 27.09C2.53 27.03 2.79 26.99 3.09 26.97C3.39 26.93 3.67 26.91 3.93 26.91C4.01 28.43 4.4 29.63 5.1 30.51C5.8 31.39 6.95 31.83 8.55 31.83C9.93 31.83 10.91 31.53 11.49 30.93C12.09 30.31 12.39 29.57 12.39 28.71C12.39 27.83 12.15 27.11 11.67 26.55C11.19 25.97 10.57 25.48 9.81 25.08C9.05 24.68 8.24 24.29 7.38 23.91C6.54 23.53 5.74 23.09 4.98 22.59C4.22 22.09 3.6 21.47 3.12 20.73C2.64 19.97 2.4 19.01 2.4 17.85C2.4 16.17 2.94 14.85 4.02 13.89C5.1 12.93 6.57 12.45 8.43 12.45C9.47 12.45 10.43 12.59 11.31 12.87C12.21 13.13 12.92 13.43 13.44 13.77C13.44 14.35 13.45 15.02 13.47 15.78C13.49 16.54 13.54 17.19 13.62 17.73C13.4 17.81 13.13 17.88 12.81 17.94C12.51 17.98 12.22 18 11.94 18C11.74 16.84 11.48 15.96 11.16 15.36C10.84 14.76 10.45 14.35 9.99 14.13C9.53 13.89 9 13.77 8.4 13.77C7.34 13.77 6.51 14.03 5.91 14.55C5.31 15.07 5.01 15.8 5.01 16.74C5.01 17.62 5.25 18.35 5.73 18.93C6.21 19.51 6.83 20.01 7.59 20.43C8.35 20.85 9.15 21.26 9.99 21.66C10.83 22.04 11.63 22.48 12.39 22.98C13.15 23.46 13.77 24.06 14.25 24.78C14.73 25.5 14.97 26.41 14.97 27.51C14.97 28.51 14.73 29.45 14.25 30.33C13.77 31.21 13.03 31.92 12.03 32.46C11.03 33 9.73 33.27 8.13 33.27ZM35.3927 12.54L42.5327 28.92C42.8727 29.66 43.1527 30.23 43.3727 30.63C43.5927 31.03 43.8127 31.31 44.0327 31.47C44.2727 31.63 44.5427 31.74 44.8427 31.8C44.9227 32.06 44.9727 32.28 44.9927 32.46C45.0127 32.64 45.0227 32.85 45.0227 33.09C44.8227 33.07 44.5127 33.05 44.0927 33.03C43.6727 33.03 43.2327 33.02 42.7727 33C42.3127 33 41.9227 33 41.6027 33C41.2827 33 40.8927 33 40.4327 33C39.9727 33.02 39.5327 33.03 39.1127 33.03C38.7127 33.05 38.4127 33.07 38.2127 33.09C38.2127 32.85 38.2227 32.62 38.2427 32.4C38.2827 32.18 38.3427 31.98 38.4227 31.8C39.2427 31.7 39.7227 31.52 39.8627 31.26C40.0227 30.98 39.9027 30.38 39.5027 29.46L38.1827 26.4C36.9227 26.4 35.5827 26.41 34.1627 26.43C32.7427 26.45 31.4427 26.48 30.2627 26.52L29.4527 28.59C29.0127 29.77 28.8727 30.59 29.0327 31.05C29.2127 31.49 29.7127 31.74 30.5327 31.8C30.6727 32.14 30.7427 32.57 30.7427 33.09C30.4027 33.05 29.9627 33.02 29.4227 33C28.9027 33 28.3927 33 27.8927 33C27.3927 33 26.9227 33.01 26.4827 33.03C26.0427 33.05 25.6827 33.07 25.4027 33.09C25.4027 32.89 25.4127 32.68 25.4327 32.46C25.4727 32.22 25.5327 32.01 25.6127 31.83C25.9727 31.75 26.2727 31.61 26.5127 31.41C26.7527 31.21 26.9827 30.89 27.2027 30.45C27.4427 29.99 27.7127 29.37 28.0127 28.59L34.2227 12.66C34.5627 12.58 34.9527 12.54 35.3927 12.54ZM32.8727 19.68L30.8027 25.05H37.6127L35.3327 19.71C35.0727 19.13 34.8427 18.61 34.6427 18.15C34.4627 17.69 34.2527 17.12 34.0127 16.44C33.7927 17.14 33.5927 17.74 33.4127 18.24C33.2327 18.74 33.0527 19.22 32.8727 19.68ZM55.5858 12.63C55.9858 12.65 56.4658 12.67 57.0258 12.69C57.6058 12.71 58.1658 12.72 58.7058 12.72C59.4258 12.72 60.1458 12.71 60.8658 12.69C61.5858 12.67 62.2958 12.66 62.9958 12.66C64.1558 12.66 65.2158 12.78 66.1758 13.02C67.1358 13.26 67.9058 13.7 68.4858 14.34C69.0858 14.96 69.3858 15.86 69.3858 17.04C69.3858 18.32 68.9958 19.42 68.2158 20.34C67.4358 21.24 66.3758 21.79 65.0358 21.99C66.0958 22.05 67.0658 22.25 67.9458 22.59C68.8458 22.91 69.5658 23.43 70.1058 24.15C70.6458 24.87 70.9158 25.85 70.9158 27.09C70.9158 28.17 70.6658 29.16 70.1658 30.06C69.6858 30.96 68.9158 31.68 67.8558 32.22C66.7958 32.74 65.4158 33 63.7158 33C63.1558 33 62.4858 33 61.7058 33C60.9458 33 60.1658 33 59.3658 33C58.5658 33.02 57.8258 33.03 57.1458 33.03C56.4658 33.05 55.9358 33.07 55.5558 33.09C55.5558 32.81 55.5658 32.57 55.5858 32.37C55.6058 32.15 55.6458 31.96 55.7058 31.8C56.5058 31.76 57.0558 31.55 57.3558 31.17C57.6558 30.79 57.8058 30.02 57.8058 28.86V16.53C57.8058 15.53 57.6558 14.86 57.3558 14.52C57.0758 14.16 56.5358 13.96 55.7358 13.92C55.6758 13.76 55.6358 13.57 55.6158 13.35C55.5958 13.11 55.5858 12.87 55.5858 12.63ZM61.8558 13.98C61.4558 13.98 61.0458 14.03 60.6258 14.13V21.75H61.5558C62.8558 21.75 63.8458 21.57 64.5258 21.21C65.2058 20.85 65.6758 20.38 65.9358 19.8C66.1958 19.2 66.3258 18.58 66.3258 17.94C66.3258 16.9 66.0858 16.1 65.6058 15.54C65.1458 14.96 64.5658 14.56 63.8658 14.34C63.1858 14.1 62.5158 13.98 61.8558 13.98ZM60.6258 28.86C60.6258 29.68 60.6958 30.3 60.8358 30.72C60.9958 31.12 61.2758 31.39 61.6758 31.53C62.0958 31.65 62.6758 31.71 63.4158 31.71C64.8958 31.71 65.9758 31.34 66.6558 30.6C67.3558 29.84 67.7058 28.81 67.7058 27.51C67.7058 26.57 67.5158 25.81 67.1358 25.23C66.7558 24.63 66.2458 24.18 65.6058 23.88C64.9858 23.56 64.2958 23.34 63.5358 23.22C62.7958 23.1 62.0558 23.04 61.3158 23.04H60.6258V28.86ZM84.5672 16.53C84.5672 15.53 84.4172 14.86 84.1172 14.52C83.8372 14.16 83.2972 13.96 82.4972 13.92C82.4372 13.76 82.3972 13.57 82.3772 13.35C82.3572 13.13 82.3472 12.89 82.3472 12.63C83.4672 12.69 84.6772 12.72 85.9772 12.72C86.6172 12.72 87.2272 12.71 87.8072 12.69C88.4072 12.67 89.0072 12.65 89.6072 12.63C89.6072 12.89 89.5972 13.13 89.5772 13.35C89.5572 13.57 89.5172 13.76 89.4572 13.92C88.6572 13.96 88.1072 14.16 87.8072 14.52C87.5272 14.86 87.3872 15.53 87.3872 16.53V29.19C87.3872 30.19 87.5272 30.87 87.8072 31.23C88.1072 31.57 88.6572 31.76 89.4572 31.8C89.5172 31.96 89.5572 32.15 89.5772 32.37C89.5972 32.57 89.6072 32.81 89.6072 33.09C88.4072 33.03 87.1972 33 85.9772 33C85.3972 33 84.7772 33 84.1172 33C83.4572 33.02 82.8672 33.05 82.3472 33.09C82.3472 32.81 82.3572 32.57 82.3772 32.37C82.3972 32.15 82.4372 31.96 82.4972 31.8C83.2972 31.76 83.8372 31.57 84.1172 31.23C84.4172 30.87 84.5672 30.19 84.5672 29.19V16.53ZM101.053 33.09C101.053 32.83 101.063 32.6 101.083 32.4C101.103 32.18 101.143 31.98 101.203 31.8C102.023 31.8 102.573 31.49 102.853 30.87C103.133 30.25 103.273 29.09 103.273 27.39V15L103.153 14.85C102.873 14.49 102.603 14.26 102.343 14.16C102.083 14.04 101.703 13.96 101.203 13.92C101.143 13.7 101.103 13.47 101.083 13.23C101.063 12.99 101.053 12.79 101.053 12.63C101.353 12.65 101.703 12.67 102.103 12.69C102.503 12.71 102.893 12.72 103.273 12.72C104.073 12.72 104.743 12.69 105.283 12.63L116.953 28.11V18.18C116.953 16.54 116.813 15.42 116.533 14.82C116.253 14.22 115.703 13.92 114.883 13.92C114.823 13.58 114.783 13.33 114.763 13.17C114.743 12.99 114.733 12.81 114.733 12.63C115.173 12.65 115.643 12.67 116.143 12.69C116.663 12.71 117.133 12.72 117.553 12.72C117.973 12.72 118.453 12.71 118.993 12.69C119.533 12.67 120.003 12.65 120.403 12.63C120.403 12.83 120.393 13.04 120.373 13.26C120.353 13.48 120.313 13.7 120.253 13.92C119.593 13.92 119.133 14.22 118.873 14.82C118.613 15.42 118.483 16.54 118.483 18.18V33C118.323 33.06 118.123 33.1 117.883 33.12C117.643 33.16 117.413 33.18 117.193 33.18L104.803 17.01V27.39C104.803 29.09 104.943 30.25 105.223 30.87C105.523 31.49 106.073 31.8 106.873 31.8C106.973 32.1 107.023 32.53 107.023 33.09C106.583 33.05 106.083 33.02 105.523 33C104.983 33 104.493 33 104.053 33C103.613 33 103.093 33 102.493 33C101.913 33.02 101.433 33.05 101.053 33.09ZM145.218 27.87C145.798 28.05 146.238 28.29 146.538 28.59C146.318 29.27 146.128 30.01 145.968 30.81C145.828 31.61 145.708 32.36 145.608 33.06C145.028 33.04 144.168 33.02 143.028 33C141.888 33 140.608 33 139.188 33C138.628 33 137.978 33 137.238 33C136.518 33 135.778 33 135.018 33C134.278 33.02 133.588 33.03 132.948 33.03C132.308 33.05 131.798 33.07 131.418 33.09C131.418 32.81 131.428 32.57 131.448 32.37C131.468 32.15 131.508 31.96 131.568 31.8C132.388 31.76 132.938 31.55 133.218 31.17C133.498 30.79 133.638 30.02 133.638 28.86V16.53C133.638 15.53 133.488 14.86 133.188 14.52C132.908 14.16 132.368 13.96 131.568 13.92C131.508 13.76 131.468 13.57 131.448 13.35C131.428 13.11 131.418 12.87 131.418 12.63C131.818 12.65 132.338 12.67 132.978 12.69C133.638 12.69 134.288 12.7 134.928 12.72C135.588 12.72 136.098 12.72 136.458 12.72C138.818 12.72 140.688 12.71 142.068 12.69C143.448 12.67 144.388 12.65 144.888 12.63C144.948 13.31 145.028 14.11 145.128 15.03C145.248 15.95 145.378 16.73 145.518 17.37C145.358 17.51 145.158 17.61 144.918 17.67C144.698 17.71 144.448 17.73 144.168 17.73C144.128 17.11 143.968 16.51 143.688 15.93C143.408 15.35 142.918 14.87 142.218 14.49C141.538 14.11 140.548 13.92 139.248 13.92H136.458V22.14H138.348C139.588 22.14 140.448 21.98 140.928 21.66C141.408 21.34 141.658 20.69 141.678 19.71C142.158 19.57 142.638 19.5 143.118 19.5C143.098 20 143.078 20.54 143.058 21.12C143.058 21.7 143.058 22.25 143.058 22.77C143.058 23.29 143.058 23.87 143.058 24.51C143.078 25.15 143.098 25.73 143.118 26.25C142.858 26.25 142.618 26.24 142.398 26.22C142.178 26.2 141.958 26.16 141.738 26.1C141.658 25.06 141.378 24.36 140.898 24C140.438 23.62 139.588 23.43 138.348 23.43H136.458V28.86C136.458 29.6 136.528 30.17 136.668 30.57C136.808 30.97 137.078 31.25 137.478 31.41C137.878 31.57 138.448 31.65 139.188 31.65H139.368C140.808 31.65 141.888 31.51 142.608 31.23C143.348 30.93 143.898 30.5 144.258 29.94C144.618 29.38 144.938 28.69 145.218 27.87ZM13.11 53.27L6.12 38.09L5.16 47.72C5.06 48.78 5.05 49.6 5.13 50.18C5.21 50.74 5.41 51.14 5.73 51.38C6.07 51.6 6.53 51.74 7.11 51.8C7.17 52 7.21 52.23 7.23 52.49C7.25 52.75 7.26 52.95 7.26 53.09C6.78 53.05 6.23 53.02 5.61 53C5.01 53 4.49 53 4.05 53C3.61 53 3.1 53 2.52 53C1.94 53.02 1.45 53.05 1.05 53.09C1.05 52.95 1.06 52.75 1.08 52.49C1.1 52.23 1.14 52 1.2 51.8C1.74 51.74 2.16 51.61 2.46 51.41C2.78 51.19 3.03 50.78 3.21 50.18C3.39 49.58 3.53 48.67 3.63 47.45L4.59 36.77C4.69 35.71 4.58 34.97 4.26 34.55C3.96 34.13 3.4 33.92 2.58 33.92C2.52 33.72 2.48 33.5 2.46 33.26C2.44 33.02 2.43 32.81 2.43 32.63C2.73 32.65 3.09 32.67 3.51 32.69C3.93 32.71 4.33 32.72 4.71 32.72C5.45 32.72 6.21 32.69 6.99 32.63L14.49 49.22L21.03 32.63C21.37 32.65 21.75 32.67 22.17 32.69C22.59 32.71 22.99 32.72 23.37 32.72C23.77 32.72 24.15 32.71 24.51 32.69C24.87 32.67 25.25 32.65 25.65 32.63C25.65 32.83 25.64 33.04 25.62 33.26C25.6 33.48 25.56 33.7 25.5 33.92C24.8 33.92 24.25 34.13 23.85 34.55C23.47 34.95 23.34 35.75 23.46 36.95L24.54 47.96C24.64 48.94 24.77 49.7 24.93 50.24C25.09 50.78 25.31 51.16 25.59 51.38C25.89 51.6 26.27 51.73 26.73 51.77C26.79 51.97 26.83 52.19 26.85 52.43C26.87 52.67 26.88 52.89 26.88 53.09C26.42 53.05 25.84 53.02 25.14 53C24.44 53 23.82 53 23.28 53C22.74 53 22.12 53 21.42 53C20.74 53.02 20.14 53.05 19.62 53.09C19.62 52.91 19.63 52.7 19.65 52.46C19.69 52.22 19.74 52 19.8 51.8C20.44 51.74 20.9 51.61 21.18 51.41C21.48 51.21 21.65 50.87 21.69 50.39C21.75 49.91 21.73 49.23 21.63 48.35L20.55 38.06L14.34 53.06C14 53.2 13.59 53.27 13.11 53.27ZM38.3266 32.54L45.4666 48.92C45.8066 49.66 46.0866 50.23 46.3066 50.63C46.5266 51.03 46.7466 51.31 46.9666 51.47C47.2066 51.63 47.4766 51.74 47.7766 51.8C47.8566 52.06 47.9066 52.28 47.9266 52.46C47.9466 52.64 47.9566 52.85 47.9566 53.09C47.7566 53.07 47.4466 53.05 47.0266 53.03C46.6066 53.03 46.1666 53.02 45.7066 53C45.2466 53 44.8566 53 44.5366 53C44.2166 53 43.8266 53 43.3666 53C42.9066 53.02 42.4666 53.03 42.0466 53.03C41.6466 53.05 41.3466 53.07 41.1466 53.09C41.1466 52.85 41.1566 52.62 41.1766 52.4C41.2166 52.18 41.2766 51.98 41.3566 51.8C42.1766 51.7 42.6566 51.52 42.7966 51.26C42.9566 50.98 42.8366 50.38 42.4366 49.46L41.1166 46.4C39.8566 46.4 38.5166 46.41 37.0966 46.43C35.6766 46.45 34.3766 46.48 33.1966 46.52L32.3866 48.59C31.9466 49.77 31.8066 50.59 31.9666 51.05C32.1466 51.49 32.6466 51.74 33.4666 51.8C33.6066 52.14 33.6766 52.57 33.6766 53.09C33.3366 53.05 32.8966 53.02 32.3566 53C31.8366 53 31.3266 53 30.8266 53C30.3266 53 29.8566 53.01 29.4166 53.03C28.9766 53.05 28.6166 53.07 28.3366 53.09C28.3366 52.89 28.3466 52.68 28.3666 52.46C28.4066 52.22 28.4666 52.01 28.5466 51.83C28.9066 51.75 29.2066 51.61 29.4466 51.41C29.6866 51.21 29.9166 50.89 30.1366 50.45C30.3766 49.99 30.6466 49.37 30.9466 48.59L37.1566 32.66C37.4966 32.58 37.8866 32.54 38.3266 32.54ZM35.8066 39.68L33.7366 45.05H40.5466L38.2666 39.71C38.0066 39.13 37.7766 38.61 37.5766 38.15C37.3966 37.69 37.1866 37.12 36.9466 36.44C36.7266 37.14 36.5266 37.74 36.3466 38.24C36.1666 38.74 35.9866 39.22 35.8066 39.68ZM50.0563 53.09C50.0563 52.83 50.0663 52.6 50.0863 52.4C50.1063 52.18 50.1463 51.98 50.2063 51.8C51.0263 51.8 51.5763 51.49 51.8563 50.87C52.1363 50.25 52.2763 49.09 52.2763 47.39V35L52.1563 34.85C51.8763 34.49 51.6063 34.26 51.3463 34.16C51.0863 34.04 50.7063 33.96 50.2063 33.92C50.1463 33.7 50.1063 33.47 50.0863 33.23C50.0663 32.99 50.0563 32.79 50.0563 32.63C50.3563 32.65 50.7063 32.67 51.1063 32.69C51.5063 32.71 51.8963 32.72 52.2763 32.72C53.0763 32.72 53.7463 32.69 54.2863 32.63L65.9563 48.11V38.18C65.9563 36.54 65.8163 35.42 65.5363 34.82C65.2563 34.22 64.7063 33.92 63.8863 33.92C63.8263 33.58 63.7863 33.33 63.7663 33.17C63.7463 32.99 63.7363 32.81 63.7363 32.63C64.1763 32.65 64.6463 32.67 65.1463 32.69C65.6663 32.71 66.1363 32.72 66.5563 32.72C66.9763 32.72 67.4563 32.71 67.9963 32.69C68.5363 32.67 69.0063 32.65 69.4063 32.63C69.4063 32.83 69.3963 33.04 69.3763 33.26C69.3563 33.48 69.3163 33.7 69.2563 33.92C68.5963 33.92 68.1363 34.22 67.8763 34.82C67.6163 35.42 67.4863 36.54 67.4863 38.18V53C67.3263 53.06 67.1263 53.1 66.8863 53.12C66.6463 53.16 66.4163 53.18 66.1963 53.18L53.8063 37.01V47.39C53.8063 49.09 53.9463 50.25 54.2263 50.87C54.5263 51.49 55.0763 51.8 55.8763 51.8C55.9763 52.1 56.0263 52.53 56.0263 53.09C55.5863 53.05 55.0863 53.02 54.5263 53C53.9863 53 53.4963 53 53.0563 53C52.6163 53 52.0963 53 51.4963 53C50.9163 53.02 50.4363 53.05 50.0563 53.09ZM78.4386 53.27C77.1986 53.27 76.1086 53.1 75.1686 52.76C74.2486 52.4 73.3086 51.93 72.3486 51.35C72.4686 50.59 72.5386 49.83 72.5586 49.07C72.5986 48.31 72.6186 47.65 72.6186 47.09C72.8386 47.03 73.0986 46.99 73.3986 46.97C73.6986 46.93 73.9786 46.91 74.2386 46.91C74.3186 48.43 74.7086 49.63 75.4086 50.51C76.1086 51.39 77.2586 51.83 78.8586 51.83C80.2386 51.83 81.2186 51.53 81.7986 50.93C82.3986 50.31 82.6986 49.57 82.6986 48.71C82.6986 47.83 82.4586 47.11 81.9786 46.55C81.4986 45.97 80.8786 45.48 80.1186 45.08C79.3586 44.68 78.5486 44.29 77.6886 43.91C76.8486 43.53 76.0486 43.09 75.2886 42.59C74.5286 42.09 73.9086 41.47 73.4286 40.73C72.9486 39.97 72.7086 39.01 72.7086 37.85C72.7086 36.17 73.2486 34.85 74.3286 33.89C75.4086 32.93 76.8786 32.45 78.7386 32.45C79.7786 32.45 80.7386 32.59 81.6186 32.87C82.5186 33.13 83.2286 33.43 83.7486 33.77C83.7486 34.35 83.7586 35.02 83.7786 35.78C83.7986 36.54 83.8486 37.19 83.9286 37.73C83.7086 37.81 83.4386 37.88 83.1186 37.94C82.8186 37.98 82.5286 38 82.2486 38C82.0486 36.84 81.7886 35.96 81.4686 35.36C81.1486 34.76 80.7586 34.35 80.2986 34.13C79.8386 33.89 79.3086 33.77 78.7086 33.77C77.6486 33.77 76.8186 34.03 76.2186 34.55C75.6186 35.07 75.3186 35.8 75.3186 36.74C75.3186 37.62 75.5586 38.35 76.0386 38.93C76.5186 39.51 77.1386 40.01 77.8986 40.43C78.6586 40.85 79.4586 41.26 80.2986 41.66C81.1386 42.04 81.9386 42.48 82.6986 42.98C83.4586 43.46 84.0786 44.06 84.5586 44.78C85.0386 45.5 85.2786 46.41 85.2786 47.51C85.2786 48.51 85.0386 49.45 84.5586 50.33C84.0786 51.21 83.3386 51.92 82.3386 52.46C81.3386 53 80.0386 53.27 78.4386 53.27ZM97.478 53.27C95.498 53.27 93.768 52.81 92.288 51.89C90.808 50.97 89.648 49.72 88.808 48.14C87.988 46.56 87.578 44.78 87.578 42.8C87.578 41.26 87.828 39.86 88.328 38.6C88.848 37.34 89.558 36.25 90.458 35.33C91.358 34.41 92.408 33.7 93.608 33.2C94.808 32.7 96.098 32.45 97.478 32.45C99.398 32.45 101.098 32.89 102.578 33.77C104.078 34.63 105.258 35.84 106.118 37.4C106.978 38.94 107.408 40.74 107.408 42.8C107.408 44.28 107.168 45.66 106.688 46.94C106.208 48.2 105.518 49.31 104.618 50.27C103.738 51.21 102.688 51.95 101.468 52.49C100.268 53.01 98.938 53.27 97.478 53.27ZM98.078 51.8C99.378 51.8 100.488 51.44 101.408 50.72C102.348 49.98 103.068 48.99 103.568 47.75C104.068 46.49 104.318 45.1 104.318 43.58C104.318 41.78 103.988 40.15 103.328 38.69C102.688 37.21 101.808 36.04 100.688 35.18C99.568 34.32 98.288 33.89 96.848 33.89C95.668 33.89 94.608 34.23 93.668 34.91C92.748 35.57 92.018 36.51 91.478 37.73C90.938 38.95 90.668 40.37 90.668 41.99C90.668 43.25 90.828 44.47 91.148 45.65C91.468 46.83 91.938 47.88 92.558 48.8C93.198 49.72 93.978 50.45 94.898 50.99C95.818 51.53 96.878 51.8 98.078 51.8ZM125.238 44.93C125.238 46.65 125.128 48.01 124.908 49.01C124.688 50.01 124.228 50.86 123.528 51.56C122.388 52.7 120.768 53.27 118.668 53.27C116.808 53.27 115.338 53 114.258 52.46C113.198 51.9 112.438 51.08 111.978 50C111.538 48.92 111.318 47.61 111.318 46.07V36.53C111.318 35.81 111.268 35.28 111.168 34.94C111.088 34.58 110.918 34.34 110.658 34.22C110.418 34.08 110.048 33.98 109.548 33.92C109.488 33.7 109.448 33.48 109.428 33.26C109.408 33.04 109.398 32.83 109.398 32.63C109.798 32.65 110.318 32.67 110.958 32.69C111.618 32.71 112.258 32.72 112.878 32.72C113.498 32.72 114.118 32.71 114.738 32.69C115.378 32.67 115.918 32.65 116.358 32.63C116.358 32.83 116.348 33.04 116.328 33.26C116.308 33.48 116.268 33.7 116.208 33.92C115.628 33.96 115.188 34.05 114.888 34.19C114.588 34.31 114.388 34.55 114.288 34.91C114.188 35.25 114.138 35.79 114.138 36.53V45.65C114.138 46.77 114.288 47.79 114.588 48.71C114.888 49.63 115.408 50.36 116.148 50.9C116.888 51.42 117.918 51.68 119.238 51.68C119.738 51.68 120.288 51.6 120.888 51.44C121.488 51.26 121.998 50.96 122.418 50.54C122.738 50.22 122.988 49.85 123.168 49.43C123.348 49.01 123.478 48.46 123.558 47.78C123.658 47.1 123.708 46.23 123.708 45.17V37.73C123.708 36.77 123.658 36.03 123.558 35.51C123.458 34.97 123.258 34.58 122.958 34.34C122.678 34.1 122.238 33.96 121.638 33.92C121.578 33.62 121.538 33.38 121.518 33.2C121.498 33.02 121.488 32.83 121.488 32.63C121.828 32.65 122.268 32.67 122.808 32.69C123.368 32.71 123.868 32.72 124.308 32.72C124.768 32.72 125.258 32.71 125.778 32.69C126.318 32.67 126.778 32.65 127.158 32.63C127.158 32.77 127.148 32.94 127.128 33.14C127.108 33.32 127.068 33.58 127.008 33.92C126.548 33.96 126.188 34.1 125.928 34.34C125.668 34.56 125.488 34.94 125.388 35.48C125.288 36 125.238 36.75 125.238 37.73V44.93ZM142.959 53.27C142.559 52.61 142.229 52.06 141.969 51.62C141.709 51.16 141.479 50.74 141.279 50.36C141.079 49.96 140.849 49.53 140.589 49.07C140.229 48.41 139.879 47.8 139.539 47.24C139.199 46.68 138.819 46.13 138.399 45.59C137.979 45.03 137.469 44.43 136.869 43.79C136.089 43.81 135.389 43.8 134.769 43.76V49.19C134.769 50.19 134.909 50.87 135.189 51.23C135.469 51.57 135.989 51.76 136.749 51.8C136.809 51.98 136.849 52.19 136.869 52.43C136.889 52.65 136.899 52.87 136.899 53.09C136.259 53.05 135.599 53.02 134.919 53C134.239 53 133.709 53 133.329 53C132.809 53 132.189 53 131.469 53C130.769 53.02 130.189 53.05 129.729 53.09C129.729 52.87 129.739 52.65 129.759 52.43C129.779 52.21 129.819 52 129.879 51.8C130.699 51.76 131.249 51.57 131.529 51.23C131.809 50.87 131.949 50.19 131.949 49.19V36.53C131.949 35.53 131.809 34.85 131.529 34.49C131.249 34.11 130.699 33.92 129.879 33.92C129.819 33.72 129.779 33.52 129.759 33.32C129.739 33.12 129.729 32.9 129.729 32.66C130.029 32.68 130.529 32.7 131.229 32.72C131.929 32.72 132.629 32.72 133.329 32.72C134.149 32.72 134.979 32.71 135.819 32.69C136.659 32.67 137.499 32.66 138.339 32.66C140.599 32.66 142.249 33.15 143.289 34.13C144.349 35.09 144.879 36.28 144.879 37.7C144.879 39.04 144.429 40.18 143.529 41.12C142.629 42.06 141.399 42.74 139.839 43.16C140.339 43.68 140.769 44.2 141.129 44.72C141.509 45.22 141.899 45.79 142.299 46.43C142.699 47.07 143.179 47.86 143.739 48.8C144.159 49.5 144.529 50.06 144.849 50.48C145.189 50.88 145.579 51.18 146.019 51.38C146.459 51.56 147.049 51.67 147.789 51.71C147.789 51.95 147.779 52.17 147.759 52.37C147.759 52.57 147.729 52.78 147.669 53C146.929 53 146.139 53.01 145.299 53.03C144.479 53.07 143.699 53.15 142.959 53.27ZM136.989 33.98C136.529 33.98 136.119 34 135.759 34.04C135.419 34.08 135.089 34.14 134.769 34.22V42.38C135.189 42.44 135.629 42.47 136.089 42.47C137.189 42.47 138.179 42.32 139.059 42.02C139.939 41.7 140.639 41.21 141.159 40.55C141.679 39.89 141.939 39.04 141.939 38C141.939 36.82 141.559 35.86 140.799 35.12C140.059 34.36 138.789 33.98 136.989 33.98Z" fill="#FFFACD"/>
</svg>
